<svg xmlns="http://www.w3.org/2000/svg" xmlns:xlink="http://www.w3.org/1999/xlink" version="1.1" class="marks" width="691" height="925" viewBox="0 0 691 925"><rect width="691" height="925" fill="white"/><g fill="none" stroke-miterlimit="10" transform="translate(40,23)"><g class="mark-group role-frame root" role="graphics-object" aria-roledescription="group mark container"><g transform="translate(0,0)"><path class="background" aria-hidden="true" d="M0,0h500v0h-500Z"/><g><g class="mark-group role-scope view_9_group" role="graphics-object" aria-roledescription="group mark container"><g transform="translate(0,0)"><path class="background" aria-hidden="true" d="M0.5,0.5h500v300h-500Z" stroke="#ddd"/><g><g class="mark-group role-axis" aria-hidden="true"><g transform="translate(0.5,0.5)"><path class="background" aria-hidden="true" d="M0,0h0v0h0Z" pointer-events="none"/><g><g class="mark-rule role-axis-grid" pointer-events="none"><line transform="translate(0,300)" x2="500" y2="0" stroke="#ddd" stroke-width="1" opacity="1"/><line transform="translate(0,254)" x2="500" y2="0" stroke="#ddd" stroke-width="1" opacity="1"/><line transform="translate(0,208)" x2="500" y2="0" stroke="#ddd" stroke-width="1" opacity="1"/><line transform="translate(0,162)" x2="500" y2="0" stroke="#ddd" stroke-width="1" opacity="1"/><line transform="translate(0,115)" x2="500" y2="0" stroke="#ddd" stroke-width="1" opacity="1"/><line transform="translate(0,69)" x2="500" y2="0" stroke="#ddd" stroke-width="1" opacity="1"/><line transform="translate(0,23)" x2="500" y2="0" stroke="#ddd" stroke-width="1" opacity="1"/></g></g><path class="foreground" aria-hidden="true" d="" pointer-events="none" display="none"/></g></g><g class="mark-group role-axis" role="graphics-symbol" aria-roledescription="axis" aria-label="X-axis titled 'Transmission Type' for a discrete scale with 5 values: Automated Manual, Automatic, Automatic w/ Select Shift, Continuously Variable, Manual"><g transform="translate(0.5,300.5)"><path class="background" aria-hidden="true" d="M0,0h0v0h0Z" pointer-events="none"/><g><g class="mark-rule role-axis-tick" pointer-events="none"><line transform="translate(49,0)" x2="0" y2="5" stroke="#888" stroke-width="1" opacity="1"/><line transform="translate(149,0)" x2="0" y2="5" stroke="#888" stroke-width="1" opacity="1"/><line transform="translate(249,0)" x2="0" y2="5" stroke="#888" stroke-width="1" opacity="1"/><line transform="translate(350,0)" x2="0" y2="5" stroke="#888" stroke-width="1" opacity="1"/><line transform="translate(450,0)" x2="0" y2="5" stroke="#888" stroke-width="1" opacity="1"/></g><g class="mark-text role-axis-label" pointer-events="none"><text text-anchor="end" transform="translate(49.49999999999997,7) rotate(270) translate(0,3)" font-family="sans-serif" font-size="10px" fill="#000" opacity="1">Automated Manual</text><text text-anchor="end" transform="translate(149.49999999999997,7) rotate(270) translate(0,3)" font-family="sans-serif" font-size="10px" fill="#000" opacity="1">Automatic</text><text text-anchor="end" transform="translate(249.49999999999997,7) rotate(270) translate(0,3)" font-family="sans-serif" font-size="10px" fill="#000" opacity="1">Automatic w/ Select Shift</text><text text-anchor="end" transform="translate(349.5,7) rotate(270) translate(0,3)" font-family="sans-serif" font-size="10px" fill="#000" opacity="1">Continuously Variable</text><text text-anchor="end" transform="translate(449.5,7) rotate(270) translate(0,3)" font-family="sans-serif" font-size="10px" fill="#000" opacity="1">Manual</text></g><g class="mark-rule role-axis-domain" pointer-events="none"><line transform="translate(0,0)" x2="500" y2="0" stroke="#888" stroke-width="1" opacity="1"/></g><g class="mark-text role-axis-title" pointer-events="none"><text text-anchor="middle" transform="translate(250,130.60058593750003)" font-family="sans-serif" font-size="11px" font-weight="bold" fill="#000" opacity="1">Transmission Type</text></g></g><path class="foreground" aria-hidden="true" d="" pointer-events="none" display="none"/></g></g><g class="mark-group role-axis" role="graphics-symbol" aria-roledescription="axis" aria-label="Y-axis titled 'Mean Combined Fuel Consumption (L/100 km)' for a linear scale with values from 0 to 13"><g transform="translate(0.5,0.5)"><path class="background" aria-hidden="true" d="M0,0h0v0h0Z" pointer-events="none"/><g><g class="mark-rule role-axis-tick" pointer-events="none"><line transform="translate(0,300)" x2="-5" y2="0" stroke="#888" stroke-width="1" opacity="1"/><line transform="translate(0,254)" x2="-5" y2="0" stroke="#888" stroke-width="1" opacity="1"/><line transform="translate(0,208)" x2="-5" y2="0" stroke="#888" stroke-width="1" opacity="1"/><line transform="translate(0,162)" x2="-5" y2="0" stroke="#888" stroke-width="1" opacity="1"/><line transform="translate(0,115)" x2="-5" y2="0" stroke="#888" stroke-width="1" opacity="1"/><line transform="translate(0,69)" x2="-5" y2="0" stroke="#888" stroke-width="1" opacity="1"/><line transform="translate(0,23)" x2="-5" y2="0" stroke="#888" stroke-width="1" opacity="1"/></g><g class="mark-text role-axis-label" pointer-events="none"><text text-anchor="end" transform="translate(-7,303)" font-family="sans-serif" font-size="10px" fill="#000" opacity="1">0</text><text text-anchor="end" transform="translate(-7,256.8461538461538)" font-family="sans-serif" font-size="10px" fill="#000" opacity="1">2</text><text text-anchor="end" transform="translate(-7,210.69230769230768)" font-family="sans-serif" font-size="10px" fill="#000" opacity="1">4</text><text text-anchor="end" transform="translate(-7,164.53846153846152)" font-family="sans-serif" font-size="10px" fill="#000" opacity="1">6</text><text text-anchor="end" transform="translate(-7,118.38461538461537)" font-family="sans-serif" font-size="10px" fill="#000" opacity="1">8</text><text text-anchor="end" transform="translate(-7,72.23076923076921)" font-family="sans-serif" font-size="10px" fill="#000" opacity="1">10</text><text text-anchor="end" transform="translate(-7,26.076923076923062)" font-family="sans-serif" font-size="10px" fill="#000" opacity="1">12</text></g><g class="mark-rule role-axis-domain" pointer-events="none"><line transform="translate(0,300)" x2="0" y2="-300" stroke="#888" stroke-width="1" opacity="1"/></g><g class="mark-text role-axis-title" pointer-events="none"><text text-anchor="middle" transform="translate(-22.123046875,150) rotate(-90) translate(0,-2)" font-family="sans-serif" font-size="11px" font-weight="bold" fill="#000" opacity="1">Mean Combined Fuel Consumption (L/100 km)</text></g></g><path class="foreground" aria-hidden="true" d="" pointer-events="none" display="none"/></g></g><g class="mark-rect role-mark view_9_marks" role="graphics-object" aria-roledescription="rect mark container"><path aria-label="Transmission Type: Automatic w/ Select Shift; Mean Combined Fuel Consumption (L/100 km): 11.1049888072; Transmission Type Full: Automatic w/ Select Shift; Mean of Fuel Consumption Comb (L/100 km): 11.1049888072" role="graphics-symbol" aria-roledescription="bar" d="M204.99999999999997,43.73102752699847h90v256.26897247300155h-90Z" fill="#e45756"/><path aria-label="Transmission Type: Manual; Mean Combined Fuel Consumption (L/100 km): 9.81324894515; Transmission Type Full: Manual; Mean of Fuel Consumption Comb (L/100 km): 9.81324894515" role="graphics-symbol" aria-roledescription="bar" d="M405,73.54040895813056h90v226.45959104186943h-90Z" fill="#54a24b"/><path aria-label="Transmission Type: Continuously Variable; Mean Combined Fuel Consumption (L/100 km): 7.91041666667; Transmission Type Full: Continuously Variable; Mean of Fuel Consumption Comb (L/100 km): 7.91041666667" role="graphics-symbol" aria-roledescription="bar" d="M305,117.45192307692317h90v182.54807692307685h-90Z" fill="#72b7b2"/><path aria-label="Transmission Type: Automated Manual; Mean Combined Fuel Consumption (L/100 km): 10.7204334365; Transmission Type Full: Automated Manual; Mean of Fuel Consumption Comb (L/100 km): 10.7204334365" role="graphics-symbol" aria-roledescription="bar" d="M4.999999999999972,52.60538223386529h90v247.3946177661347h-90Z" fill="#4c78a8"/><path aria-label="Transmission Type: Automatic; Mean Combined Fuel Consumption (L/100 km): 12.5419232847; Transmission Type Full: Automatic; Mean of Fuel Consumption Comb (L/100 km): 12.5419232847" role="graphics-symbol" aria-roledescription="bar" d="M104.99999999999997,10.57100112205479h90v289.4289988779452h-90Z" fill="#f58518"/></g><g class="mark-group role-title"><g transform="translate(250,-17)"><path class="background" aria-hidden="true" d="M0,0h0v0h0Z" pointer-events="none"/><g><g class="mark-text role-title-text" role="graphics-symbol" aria-roledescription="title" aria-label="Title text 'Overview: Combined Fuel Consumption by Transmission Type'" pointer-events="none"><text text-anchor="middle" transform="translate(0,10)" font-family="sans-serif" font-size="13px" font-weight="bold" fill="#000" opacity="1">Overview: Combined Fuel Consumption by Transmission Type</text></g></g><path class="foreground" aria-hidden="true" d="" pointer-events="none" display="none"/></g></g></g><path class="foreground" aria-hidden="true" d="" display="none"/></g></g><g class="mark-group role-scope concat_1_group" role="graphics-object" aria-roledescription="group mark container"><g transform="translate(0,477)"><path class="background" aria-hidden="true" d="M0.5,0.5h500v300h-500Z" stroke="#ddd"/><g><g class="mark-group role-axis" aria-hidden="true"><g transform="translate(0.5,0.5)"><path class="background" aria-hidden="true" d="M0,0h0v0h0Z" pointer-events="none"/><g><g class="mark-rule role-axis-grid" pointer-events="none"><line transform="translate(0,300)" x2="500" y2="0" stroke="#ddd" stroke-width="1" opacity="1"/><line transform="translate(0,263)" x2="500" y2="0" stroke="#ddd" stroke-width="1" opacity="1"/><line transform="translate(0,225)" x2="500" y2="0" stroke="#ddd" stroke-width="1" opacity="1"/><line transform="translate(0,188)" x2="500" y2="0" stroke="#ddd" stroke-width="1" opacity="1"/><line transform="translate(0,150)" x2="500" y2="0" stroke="#ddd" stroke-width="1" opacity="1"/><line transform="translate(0,113)" x2="500" y2="0" stroke="#ddd" stroke-width="1" opacity="1"/><line transform="translate(0,75)" x2="500" y2="0" stroke="#ddd" stroke-width="1" opacity="1"/><line transform="translate(0,38)" x2="500" y2="0" stroke="#ddd" stroke-width="1" opacity="1"/><line transform="translate(0,0)" x2="500" y2="0" stroke="#ddd" stroke-width="1" opacity="1"/></g></g><path class="foreground" aria-hidden="true" d="" pointer-events="none" display="none"/></g></g><g class="mark-group role-axis" role="graphics-symbol" aria-roledescription="axis" aria-label="X-axis titled 'Number of Gears' for a discrete scale with 8 values: 4, 5, 6, 7, 8, ending with Continuously Variable"><g transform="translate(0.5,300.5)"><path class="background" aria-hidden="true" d="M0,0h0v0h0Z" pointer-events="none"/><g><g class="mark-rule role-axis-tick" pointer-events="none"><line transform="translate(31,0)" x2="0" y2="5" stroke="#888" stroke-width="1" opacity="1"/><line transform="translate(94,0)" x2="0" y2="5" stroke="#888" stroke-width="1" opacity="1"/><line transform="translate(156,0)" x2="0" y2="5" stroke="#888" stroke-width="1" opacity="1"/><line transform="translate(219,0)" x2="0" y2="5" stroke="#888" stroke-width="1" opacity="1"/><line transform="translate(281,0)" x2="0" y2="5" stroke="#888" stroke-width="1" opacity="1"/><line transform="translate(344,0)" x2="0" y2="5" stroke="#888" stroke-width="1" opacity="1"/><line transform="translate(406,0)" x2="0" y2="5" stroke="#888" stroke-width="1" opacity="1"/><line transform="translate(469,0)" x2="0" y2="5" stroke="#888" stroke-width="1" opacity="1"/></g><g class="mark-text role-axis-label" pointer-events="none"><text text-anchor="end" transform="translate(31.25,7) rotate(270) translate(0,3)" font-family="sans-serif" font-size="10px" fill="#000" opacity="1">4</text><text text-anchor="end" transform="translate(93.75,7) rotate(270) translate(0,3)" font-family="sans-serif" font-size="10px" fill="#000" opacity="1">5</text><text text-anchor="end" transform="translate(156.25,7) rotate(270) translate(0,3)" font-family="sans-serif" font-size="10px" fill="#000" opacity="1">6</text><text text-anchor="end" transform="translate(218.75,7) rotate(270) translate(0,3)" font-family="sans-serif" font-size="10px" fill="#000" opacity="1">7</text><text text-anchor="end" transform="translate(281.25,7) rotate(270) translate(0,3)" font-family="sans-serif" font-size="10px" fill="#000" opacity="1">8</text><text text-anchor="end" transform="translate(343.75,7) rotate(270) translate(0,3)" font-family="sans-serif" font-size="10px" fill="#000" opacity="1">9</text><text text-anchor="end" transform="translate(406.25,7) rotate(270) translate(0,3)" font-family="sans-serif" font-size="10px" fill="#000" opacity="1">10</text><text text-anchor="end" transform="translate(468.75,7) rotate(270) translate(0,3)" font-family="sans-serif" font-size="10px" fill="#000" opacity="1">Continuously Variable</text></g><g class="mark-rule role-axis-domain" pointer-events="none"><line transform="translate(0,0)" x2="500" y2="0" stroke="#888" stroke-width="1" opacity="1"/></g><g class="mark-text role-axis-title" pointer-events="none"><text text-anchor="middle" transform="translate(250,116.54296875)" font-family="sans-serif" font-size="11px" font-weight="bold" fill="#000" opacity="1">Number of Gears</text></g></g><path class="foreground" aria-hidden="true" d="" pointer-events="none" display="none"/></g></g><g class="mark-group role-axis" role="graphics-symbol" aria-roledescription="axis" aria-label="Y-axis titled 'Mean Combined Fuel Consumption (L/100 km)' for a linear scale with values from 0 to 16"><g transform="translate(0.5,0.5)"><path class="background" aria-hidden="true" d="M0,0h0v0h0Z" pointer-events="none"/><g><g class="mark-rule role-axis-tick" pointer-events="none"><line transform="translate(0,300)" x2="-5" y2="0" stroke="#888" stroke-width="1" opacity="1"/><line transform="translate(0,263)" x2="-5" y2="0" stroke="#888" stroke-width="1" opacity="1"/><line transform="translate(0,225)" x2="-5" y2="0" stroke="#888" stroke-width="1" opacity="1"/><line transform="translate(0,188)" x2="-5" y2="0" stroke="#888" stroke-width="1" opacity="1"/><line transform="translate(0,150)" x2="-5" y2="0" stroke="#888" stroke-width="1" opacity="1"/><line transform="translate(0,113)" x2="-5" y2="0" stroke="#888" stroke-width="1" opacity="1"/><line transform="translate(0,75)" x2="-5" y2="0" stroke="#888" stroke-width="1" opacity="1"/><line transform="translate(0,38)" x2="-5" y2="0" stroke="#888" stroke-width="1" opacity="1"/><line transform="translate(0,0)" x2="-5" y2="0" stroke="#888" stroke-width="1" opacity="1"/></g><g class="mark-text role-axis-label" pointer-events="none"><text text-anchor="end" transform="translate(-7,303)" font-family="sans-serif" font-size="10px" fill="#000" opacity="1">0</text><text text-anchor="end" transform="translate(-7,265.5)" font-family="sans-serif" font-size="10px" fill="#000" opacity="1">2</text><text text-anchor="end" transform="translate(-7,228)" font-family="sans-serif" font-size="10px" fill="#000" opacity="1">4</text><text text-anchor="end" transform="translate(-7,190.5)" font-family="sans-serif" font-size="10px" fill="#000" opacity="1">6</text><text text-anchor="end" transform="translate(-7,153)" font-family="sans-serif" font-size="10px" fill="#000" opacity="1">8</text><text text-anchor="end" transform="translate(-7,115.5)" font-family="sans-serif" font-size="10px" fill="#000" opacity="1">10</text><text text-anchor="end" transform="translate(-7,78)" font-family="sans-serif" font-size="10px" fill="#000" opacity="1">12</text><text text-anchor="end" transform="translate(-7,40.5)" font-family="sans-serif" font-size="10px" fill="#000" opacity="1">14</text><text text-anchor="end" transform="translate(-7,3)" font-family="sans-serif" font-size="10px" fill="#000" opacity="1">16</text></g><g class="mark-rule role-axis-domain" pointer-events="none"><line transform="translate(0,300)" x2="0" y2="-300" stroke="#888" stroke-width="1" opacity="1"/></g><g class="mark-text role-axis-title" pointer-events="none"><text text-anchor="middle" transform="translate(-22.123046875,150) rotate(-90) translate(0,-2)" font-family="sans-serif" font-size="11px" font-weight="bold" fill="#000" opacity="1">Mean Combined Fuel Consumption (L/100 km)</text></g></g><path class="foreground" aria-hidden="true" d="" pointer-events="none" display="none"/></g></g><g class="mark-symbol role-mark concat_1_marks" role="graphics-object" aria-roledescription="symbol mark container"><path aria-label="Number of Gears: 5; Mean Combined Fuel Consumption (L/100 km): 11.8807692308; Transmission Type Full: Automatic w/ Select Shift; Mapped Gears: 5; Mean of Fuel Consumption Comb (L/100 km): 11.8807692308" role="graphics-symbol" aria-roledescription="circle" transform="translate(93.75,77.23557692307696)" d="M4.472,0A4.472,4.472,0,1,1,-4.472,0A4.472,4.472,0,1,1,4.472,0" fill="#e45756" stroke-width="2"/><path aria-label="Number of Gears: 6; Mean Combined Fuel Consumption (L/100 km): 9.95960044395; Transmission Type Full: Manual; Mapped Gears: 6; Mean of Fuel Consumption Comb (L/100 km): 9.95960044395" role="graphics-symbol" aria-roledescription="circle" transform="translate(156.25,113.25749167591532)" d="M4.472,0A4.472,4.472,0,1,1,-4.472,0A4.472,4.472,0,1,1,4.472,0" fill="#54a24b" stroke-width="2"/><path aria-label="Number of Gears: 7; Mean Combined Fuel Consumption (L/100 km): 8.25338983051; Transmission Type Full: Continuously Variable; Mapped Gears: 7; Mean of Fuel Consumption Comb (L/100 km): 8.25338983051" role="graphics-symbol" aria-roledescription="circle" transform="translate(218.75,145.24894067796623)" d="M4.472,0A4.472,4.472,0,1,1,-4.472,0A4.472,4.472,0,1,1,4.472,0" fill="#72b7b2" stroke-width="2"/><path aria-label="Number of Gears: 6; Mean Combined Fuel Consumption (L/100 km): 10.5887462236; Transmission Type Full: Automatic w/ Select Shift; Mapped Gears: 6; Mean of Fuel Consumption Comb (L/100 km): 10.5887462236" role="graphics-symbol" aria-roledescription="circle" transform="translate(156.25,101.46100830815709)" d="M4.472,0A4.472,4.472,0,1,1,-4.472,0A4.472,4.472,0,1,1,4.472,0" fill="#e45756" stroke-width="2"/><path aria-label="Number of Gears: 6; Mean Combined Fuel Consumption (L/100 km): 8.10303030303; Transmission Type Full: Automated Manual; Mapped Gears: 6; Mean of Fuel Consumption Comb (L/100 km): 8.10303030303" role="graphics-symbol" aria-roledescription="circle" transform="translate(156.25,148.06818181818184)" d="M4.472,0A4.472,4.472,0,1,1,-4.472,0A4.472,4.472,0,1,1,4.472,0" fill="#4c78a8" stroke-width="2"/><path aria-label="Number of Gears: 6; Mean Combined Fuel Consumption (L/100 km): 13.0416983523; Transmission Type Full: Automatic; Mapped Gears: 6; Mean of Fuel Consumption Comb (L/100 km): 13.0416983523" role="graphics-symbol" aria-roledescription="circle" transform="translate(156.25,55.468155893536085)" d="M4.472,0A4.472,4.472,0,1,1,-4.472,0A4.472,4.472,0,1,1,4.472,0" fill="#f58518" stroke-width="2"/><path aria-label="Number of Gears: 7; Mean Combined Fuel Consumption (L/100 km): 11.5146067416; Transmission Type Full: Automated Manual; Mapped Gears: 7; Mean of Fuel Consumption Comb (L/100 km): 11.5146067416" role="graphics-symbol" aria-roledescription="circle" transform="translate(218.75,84.10112359550564)" d="M4.472,0A4.472,4.472,0,1,1,-4.472,0A4.472,4.472,0,1,1,4.472,0" fill="#4c78a8" stroke-width="2"/><path aria-label="Number of Gears: 8; Mean Combined Fuel Consumption (L/100 km): 9.36153846154; Transmission Type Full: Continuously Variable; Mapped Gears: 8; Mean of Fuel Consumption Comb (L/100 km): 9.36153846154" role="graphics-symbol" aria-roledescription="circle" transform="translate(281.25,124.47115384615387)" d="M4.472,0A4.472,4.472,0,1,1,-4.472,0A4.472,4.472,0,1,1,4.472,0" fill="#72b7b2" stroke-width="2"/><path aria-label="Number of Gears: 8; Mean Combined Fuel Consumption (L/100 km): 11.2977704377; Transmission Type Full: Automatic w/ Select Shift; Mapped Gears: 8; Mean of Fuel Consumption Comb (L/100 km): 11.2977704377" role="graphics-symbol" aria-roledescription="circle" transform="translate(281.25,88.1668042939722)" d="M4.472,0A4.472,4.472,0,1,1,-4.472,0A4.472,4.472,0,1,1,4.472,0" fill="#e45756" stroke-width="2"/><path aria-label="Number of Gears: 7; Mean Combined Fuel Consumption (L/100 km): 13.3981132075; Transmission Type Full: Automatic; Mapped Gears: 7; Mean of Fuel Consumption Comb (L/100 km): 13.3981132075" role="graphics-symbol" aria-roledescription="circle" transform="translate(218.75,48.785377358490614)" d="M4.472,0A4.472,4.472,0,1,1,-4.472,0A4.472,4.472,0,1,1,4.472,0" fill="#f58518" stroke-width="2"/><path aria-label="Number of Gears: 8; Mean Combined Fuel Consumption (L/100 km): 12.4508163265; Transmission Type Full: Automatic; Mapped Gears: 8; Mean of Fuel Consumption Comb (L/100 km): 12.4508163265" role="graphics-symbol" aria-roledescription="circle" transform="translate(281.25,66.54719387755073)" d="M4.472,0A4.472,4.472,0,1,1,-4.472,0A4.472,4.472,0,1,1,4.472,0" fill="#f58518" stroke-width="2"/><path aria-label="Number of Gears: 7; Mean Combined Fuel Consumption (L/100 km): 11.1879120879; Transmission Type Full: Manual; Mapped Gears: 7; Mean of Fuel Consumption Comb (L/100 km): 11.1879120879" role="graphics-symbol" aria-roledescription="circle" transform="translate(218.75,90.2266483516484)" d="M4.472,0A4.472,4.472,0,1,1,-4.472,0A4.472,4.472,0,1,1,4.472,0" fill="#54a24b" stroke-width="2"/><path aria-label="Number of Gears: 4; Mean Combined Fuel Consumption (L/100 km): 14.3446153846; Transmission Type Full: Automatic; Mapped Gears: 4; Mean of Fuel Consumption Comb (L/100 km): 14.3446153846" role="graphics-symbol" aria-roledescription="circle" transform="translate(31.25,31.038461538461515)" d="M4.472,0A4.472,4.472,0,1,1,-4.472,0A4.472,4.472,0,1,1,4.472,0" fill="#f58518" stroke-width="2"/><path aria-label="Number of Gears: 5; Mean Combined Fuel Consumption (L/100 km): 8.48186528497; Transmission Type Full: Manual; Mapped Gears: 5; Mean of Fuel Consumption Comb (L/100 km): 8.48186528497" role="graphics-symbol" aria-roledescription="circle" transform="translate(93.75,140.96502590673572)" d="M4.472,0A4.472,4.472,0,1,1,-4.472,0A4.472,4.472,0,1,1,4.472,0" fill="#54a24b" stroke-width="2"/><path aria-label="Number of Gears: Continuously Variable; Mean Combined Fuel Consumption (L/100 km): 7.45593220339; Transmission Type Full: Continuously Variable; Mapped Gears: Continuously Variable; Mean of Fuel Consumption Comb (L/100 km): 7.45593220339" role="graphics-symbol" aria-roledescription="circle" transform="translate(468.75,160.2012711864407)" d="M4.472,0A4.472,4.472,0,1,1,-4.472,0A4.472,4.472,0,1,1,4.472,0" fill="#72b7b2" stroke-width="2"/><path aria-label="Number of Gears: 5; Mean Combined Fuel Consumption (L/100 km): 13.1583333333; Transmission Type Full: Automatic; Mapped Gears: 5; Mean of Fuel Consumption Comb (L/100 km): 13.1583333333" role="graphics-symbol" aria-roledescription="circle" transform="translate(93.75,53.28125)" d="M4.472,0A4.472,4.472,0,1,1,-4.472,0A4.472,4.472,0,1,1,4.472,0" fill="#f58518" stroke-width="2"/><path aria-label="Number of Gears: 7; Mean Combined Fuel Consumption (L/100 km): 11.8984326019; Transmission Type Full: Automatic w/ Select Shift; Mapped Gears: 7; Mean of Fuel Consumption Comb (L/100 km): 11.8984326019" role="graphics-symbol" aria-roledescription="circle" transform="translate(218.75,76.90438871473336)" d="M4.472,0A4.472,4.472,0,1,1,-4.472,0A4.472,4.472,0,1,1,4.472,0" fill="#e45756" stroke-width="2"/><path aria-label="Number of Gears: 9; Mean Combined Fuel Consumption (L/100 km): 10.8168141593; Transmission Type Full: Automatic; Mapped Gears: 9; Mean of Fuel Consumption Comb (L/100 km): 10.8168141593" role="graphics-symbol" aria-roledescription="circle" transform="translate(343.75,97.18473451327445)" d="M4.472,0A4.472,4.472,0,1,1,-4.472,0A4.472,4.472,0,1,1,4.472,0" fill="#f58518" stroke-width="2"/><path aria-label="Number of Gears: 9; Mean Combined Fuel Consumption (L/100 km): 10.4571428571; Transmission Type Full: Automatic w/ Select Shift; Mapped Gears: 9; Mean of Fuel Consumption Comb (L/100 km): 10.4571428571" role="graphics-symbol" aria-roledescription="circle" transform="translate(343.75,103.92857142857146)" d="M4.472,0A4.472,4.472,0,1,1,-4.472,0A4.472,4.472,0,1,1,4.472,0" fill="#e45756" stroke-width="2"/><path aria-label="Number of Gears: 6; Mean Combined Fuel Consumption (L/100 km): 8.23805309735; Transmission Type Full: Continuously Variable; Mapped Gears: 6; Mean of Fuel Consumption Comb (L/100 km): 8.23805309735" role="graphics-symbol" aria-roledescription="circle" transform="translate(156.25,145.53650442477888)" d="M4.472,0A4.472,4.472,0,1,1,-4.472,0A4.472,4.472,0,1,1,4.472,0" fill="#72b7b2" stroke-width="2"/><path aria-label="Number of Gears: 4; Mean Combined Fuel Consumption (L/100 km): 9.85; Transmission Type Full: Automatic w/ Select Shift; Mapped Gears: 4; Mean of Fuel Consumption Comb (L/100 km): 9.85" role="graphics-symbol" aria-roledescription="circle" transform="translate(31.25,115.31249999999997)" d="M4.472,0A4.472,4.472,0,1,1,-4.472,0A4.472,4.472,0,1,1,4.472,0" fill="#e45756" stroke-width="2"/><path aria-label="Number of Gears: 5; Mean Combined Fuel Consumption (L/100 km): 6.45; Transmission Type Full: Automated Manual; Mapped Gears: 5; Mean of Fuel Consumption Comb (L/100 km): 6.45" role="graphics-symbol" aria-roledescription="circle" transform="translate(93.75,179.0625)" d="M4.472,0A4.472,4.472,0,1,1,-4.472,0A4.472,4.472,0,1,1,4.472,0" fill="#4c78a8" stroke-width="2"/><path aria-label="Number of Gears: 8; Mean Combined Fuel Consumption (L/100 km): 10.8548387097; Transmission Type Full: Automated Manual; Mapped Gears: 8; Mean of Fuel Consumption Comb (L/100 km): 10.8548387097" role="graphics-symbol" aria-roledescription="circle" transform="translate(281.25,96.47177419354841)" d="M4.472,0A4.472,4.472,0,1,1,-4.472,0A4.472,4.472,0,1,1,4.472,0" fill="#4c78a8" stroke-width="2"/><path aria-label="Number of Gears: 9; Mean Combined Fuel Consumption (L/100 km): 11; Transmission Type Full: Automated Manual; Mapped Gears: 9; Mean of Fuel Consumption Comb (L/100 km): 11" role="graphics-symbol" aria-roledescription="circle" transform="translate(343.75,93.75)" d="M4.472,0A4.472,4.472,0,1,1,-4.472,0A4.472,4.472,0,1,1,4.472,0" fill="#4c78a8" stroke-width="2"/><path aria-label="Number of Gears: 10; Mean Combined Fuel Consumption (L/100 km): 12.469047619; Transmission Type Full: Automatic w/ Select Shift; Mapped Gears: 10; Mean of Fuel Consumption Comb (L/100 km): 12.469047619" role="graphics-symbol" aria-roledescription="circle" transform="translate(406.25,66.20535714285715)" d="M4.472,0A4.472,4.472,0,1,1,-4.472,0A4.472,4.472,0,1,1,4.472,0" fill="#e45756" stroke-width="2"/><path aria-label="Number of Gears: 10; Mean Combined Fuel Consumption (L/100 km): 13.2129032258; Transmission Type Full: Automatic; Mapped Gears: 10; Mean of Fuel Consumption Comb (L/100 km): 13.2129032258" role="graphics-symbol" aria-roledescription="circle" transform="translate(406.25,52.25806451612907)" d="M4.472,0A4.472,4.472,0,1,1,-4.472,0A4.472,4.472,0,1,1,4.472,0" fill="#f58518" stroke-width="2"/><path aria-label="Number of Gears: 10; Mean Combined Fuel Consumption (L/100 km): 7.90909090909; Transmission Type Full: Continuously Variable; Mapped Gears: 10; Mean of Fuel Consumption Comb (L/100 km): 7.90909090909" role="graphics-symbol" aria-roledescription="circle" transform="translate(406.25,151.70454545454544)" d="M4.472,0A4.472,4.472,0,1,1,-4.472,0A4.472,4.472,0,1,1,4.472,0" fill="#72b7b2" stroke-width="2"/></g><g class="mark-group role-title"><g transform="translate(250,-22)"><path class="background" aria-hidden="true" d="M0,0h0v0h0Z" pointer-events="none"/><g><g class="mark-text role-title-text" role="graphics-symbol" aria-roledescription="title" aria-label="Title text 'Detail: Fuel Consumption by Transmission and Number of Gears'" pointer-events="none"><text text-anchor="middle" transform="translate(0,10)" font-family="sans-serif" font-size="13px" font-weight="bold" fill="#000" opacity="1">Detail: Fuel Consumption by Transmission and Number of Gears</text></g></g><path class="foreground" aria-hidden="true" d="" pointer-events="none" display="none"/></g></g></g><path class="foreground" aria-hidden="true" d="" display="none"/></g></g><g class="mark-group role-legend" role="graphics-symbol" aria-roledescription="legend" aria-label="Symbol legend titled 'Transmission Type' for fill color with 5 values: Automated Manual, Automatic, Automatic w/ Select Shift, Continuously Variable, Manual"><g transform="translate(519,0)"><path class="background" aria-hidden="true" d="M0,0h127v79h-127Z" pointer-events="none"/><g><g class="mark-group role-legend-entry"><g transform="translate(0,16)"><path class="background" aria-hidden="true" d="M0,0h0v0h0Z" pointer-events="none"/><g><g class="mark-group role-scope Transmission_Type_Full_legend_entries" role="graphics-object" aria-roledescription="group mark container"><g transform="translate(0,0)"><path class="background" aria-hidden="true" d="M0,0h126.6005859375v11h-126.6005859375Z" opacity="1"/><g><g class="mark-symbol role-legend-symbol Transmission_Type_Full_legend_symbols"><path transform="translate(6,6)" d="M-5,-5h10v10h-10Z" fill="#4c78a8" stroke-width="1.5" opacity="1"/></g><g class="mark-text role-legend-label Transmission_Type_Full_legend_labels"><text text-anchor="start" transform="translate(16,9)" font-family="sans-serif" font-size="10px" fill="#000" opacity="1">Automated Manual</text></g></g><path class="foreground" aria-hidden="true" d="" display="none"/></g><g transform="translate(0,13)"><path class="background" aria-hidden="true" d="M0,0h126.6005859375v11h-126.6005859375Z" opacity="1"/><g><g class="mark-symbol role-legend-symbol Transmission_Type_Full_legend_symbols"><path transform="translate(6,6)" d="M-5,-5h10v10h-10Z" fill="#f58518" stroke-width="1.5" opacity="1"/></g><g class="mark-text role-legend-label Transmission_Type_Full_legend_labels"><text text-anchor="start" transform="translate(16,9)" font-family="sans-serif" font-size="10px" fill="#000" opacity="1">Automatic</text></g></g><path class="foreground" aria-hidden="true" d="" display="none"/></g><g transform="translate(0,26)"><path class="background" aria-hidden="true" d="M0,0h126.6005859375v11h-126.6005859375Z" opacity="1"/><g><g class="mark-symbol role-legend-symbol Transmission_Type_Full_legend_symbols"><path transform="translate(6,6)" d="M-5,-5h10v10h-10Z" fill="#e45756" stroke-width="1.5" opacity="1"/></g><g class="mark-text role-legend-label Transmission_Type_Full_legend_labels"><text text-anchor="start" transform="translate(16,9)" font-family="sans-serif" font-size="10px" fill="#000" opacity="1">Automatic w/ Select Shift</text></g></g><path class="foreground" aria-hidden="true" d="" display="none"/></g><g transform="translate(0,39)"><path class="background" aria-hidden="true" d="M0,0h126.6005859375v11h-126.6005859375Z" opacity="1"/><g><g class="mark-symbol role-legend-symbol Transmission_Type_Full_legend_symbols"><path transform="translate(6,6)" d="M-5,-5h10v10h-10Z" fill="#72b7b2" stroke-width="1.5" opacity="1"/></g><g class="mark-text role-legend-label Transmission_Type_Full_legend_labels"><text text-anchor="start" transform="translate(16,9)" font-family="sans-serif" font-size="10px" fill="#000" opacity="1">Continuously Variable</text></g></g><path class="foreground" aria-hidden="true" d="" display="none"/></g><g transform="translate(0,52)"><path class="background" aria-hidden="true" d="M0,0h126.6005859375v11h-126.6005859375Z" opacity="1"/><g><g class="mark-symbol role-legend-symbol Transmission_Type_Full_legend_symbols"><path transform="translate(6,6)" d="M-5,-5h10v10h-10Z" fill="#54a24b" stroke-width="1.5" opacity="1"/></g><g class="mark-text role-legend-label Transmission_Type_Full_legend_labels"><text text-anchor="start" transform="translate(16,9)" font-family="sans-serif" font-size="10px" fill="#000" opacity="1">Manual</text></g></g><path class="foreground" aria-hidden="true" d="" display="none"/></g></g></g><path class="foreground" aria-hidden="true" d="" pointer-events="none" display="none"/></g></g><g class="mark-text role-legend-title" pointer-events="none"><text text-anchor="start" transform="translate(0,9)" font-family="sans-serif" font-size="11px" font-weight="bold" fill="#000" opacity="1">Transmission Type</text></g></g><path class="foreground" aria-hidden="true" d="" pointer-events="none" display="none"/></g></g></g><path class="foreground" aria-hidden="true" d="" display="none"/></g></g></g></svg>